<svg width="94" height="30" viewBox="0 0 94 30" fill="none" xmlns="http://www.w3.org/2000/svg">
<path d="M16.25 21.7054C16.25 22.5375 17.2071 23.0056 17.8639 22.4947L26.4851 15.7894C26.9999 15.389 26.9999 14.611 26.4851 14.2106L17.8639 7.50529C17.2071 6.9944 16.25 7.46249 16.25 8.29464V21.7054Z" stroke="white" stroke-width="2.5" stroke-linecap="round" stroke-linejoin="round"/>
<path d="M2.5 21.7054C2.5 22.5375 3.45708 23.0056 4.11394 22.4947L12.7351 15.7894C13.2499 15.389 13.2499 14.611 12.7351 14.2106L4.11394 7.50529C3.45708 6.9944 2.5 7.46249 2.5 8.29464V21.7054Z" stroke="white" stroke-width="2.5" stroke-linecap="round" stroke-linejoin="round"/>
<path d="M32.4347 7.45455H35.6591L39.9773 17.9943H40.1477L44.4659 7.45455H47.6903V22H45.1619V12.0071H45.027L41.0071 21.9574H39.1179L35.098 11.9858H34.9631V22H32.4347V7.45455ZM54.2045 22.2131C53.1392 22.2131 52.2159 21.9787 51.4347 21.5099C50.6534 21.0412 50.0473 20.3854 49.6165 19.5426C49.1903 18.6998 48.9773 17.715 48.9773 16.5881C48.9773 15.4612 49.1903 14.474 49.6165 13.6264C50.0473 12.7789 50.6534 12.1207 51.4347 11.652C52.2159 11.1832 53.1392 10.9489 54.2045 10.9489C55.2699 10.9489 56.1932 11.1832 56.9744 11.652C57.7557 12.1207 58.3594 12.7789 58.7855 13.6264C59.2164 14.474 59.4318 15.4612 59.4318 16.5881C59.4318 17.715 59.2164 18.6998 58.7855 19.5426C58.3594 20.3854 57.7557 21.0412 56.9744 21.5099C56.1932 21.9787 55.2699 22.2131 54.2045 22.2131ZM54.2188 20.1534C54.7964 20.1534 55.2794 19.9948 55.6676 19.6776C56.0559 19.3556 56.3447 18.9247 56.5341 18.3849C56.7282 17.8452 56.8253 17.2438 56.8253 16.581C56.8253 15.9134 56.7282 15.3097 56.5341 14.7699C56.3447 14.2254 56.0559 13.7921 55.6676 13.4702C55.2794 13.1482 54.7964 12.9872 54.2188 12.9872C53.6269 12.9872 53.1345 13.1482 52.7415 13.4702C52.3532 13.7921 52.062 14.2254 51.8679 14.7699C51.6785 15.3097 51.5838 15.9134 51.5838 16.581C51.5838 17.2438 51.6785 17.8452 51.8679 18.3849C52.062 18.9247 52.3532 19.3556 52.7415 19.6776C53.1345 19.9948 53.6269 20.1534 54.2188 20.1534ZM65.3725 22.2131C64.3072 22.2131 63.3839 21.9787 62.6026 21.5099C61.8214 21.0412 61.2153 20.3854 60.7844 19.5426C60.3583 18.6998 60.1452 17.715 60.1452 16.5881C60.1452 15.4612 60.3583 14.474 60.7844 13.6264C61.2153 12.7789 61.8214 12.1207 62.6026 11.652C63.3839 11.1832 64.3072 10.9489 65.3725 10.9489C66.4379 10.9489 67.3612 11.1832 68.1424 11.652C68.9237 12.1207 69.5273 12.7789 69.9535 13.6264C70.3844 14.474 70.5998 15.4612 70.5998 16.5881C70.5998 17.715 70.3844 18.6998 69.9535 19.5426C69.5273 20.3854 68.9237 21.0412 68.1424 21.5099C67.3612 21.9787 66.4379 22.2131 65.3725 22.2131ZM65.3867 20.1534C65.9644 20.1534 66.4473 19.9948 66.8356 19.6776C67.2238 19.3556 67.5127 18.9247 67.7021 18.3849C67.8962 17.8452 67.9933 17.2438 67.9933 16.581C67.9933 15.9134 67.8962 15.3097 67.7021 14.7699C67.5127 14.2254 67.2238 13.7921 66.8356 13.4702C66.4473 13.1482 65.9644 12.9872 65.3867 12.9872C64.7949 12.9872 64.3024 13.1482 63.9094 13.4702C63.5212 13.7921 63.23 14.2254 63.0359 14.7699C62.8465 15.3097 62.7518 15.9134 62.7518 16.581C62.7518 17.2438 62.8465 17.8452 63.0359 18.3849C63.23 18.9247 63.5212 19.3556 63.9094 19.6776C64.3024 19.9948 64.7949 20.1534 65.3867 20.1534ZM75.8303 22.1918C74.9732 22.1918 74.2062 21.9716 73.5291 21.5312C72.852 21.0909 72.317 20.4517 71.924 19.6136C71.531 18.7756 71.3345 17.7576 71.3345 16.5597C71.3345 15.3475 71.5334 14.3248 71.9311 13.4915C72.3336 12.6534 72.8757 12.0213 73.5575 11.5952C74.2393 11.1643 74.9993 10.9489 75.8374 10.9489C76.4766 10.9489 77.0021 11.0578 77.4141 11.2756C77.826 11.4886 78.1527 11.7467 78.3942 12.0497C78.6357 12.348 78.8227 12.6297 78.9553 12.8949H79.0618V7.45455H81.6399V22H79.1115V20.2812H78.9553C78.8227 20.5464 78.6309 20.8281 78.38 21.1264C78.129 21.42 77.7976 21.6709 77.3857 21.8793C76.9737 22.0876 76.4553 22.1918 75.8303 22.1918ZM76.5476 20.0824C77.0921 20.0824 77.5561 19.9356 77.9396 19.642C78.3232 19.3437 78.6143 18.9295 78.8132 18.3991C79.0121 17.8688 79.1115 17.2509 79.1115 16.5455C79.1115 15.84 79.0121 15.2268 78.8132 14.706C78.6191 14.1851 78.3303 13.7803 77.9467 13.4915C77.5679 13.2027 77.1016 13.0582 76.5476 13.0582C75.9747 13.0582 75.4964 13.2074 75.1129 13.5057C74.7294 13.804 74.4406 14.2159 74.2464 14.7415C74.0523 15.267 73.9553 15.8684 73.9553 16.5455C73.9553 17.2273 74.0523 17.8357 74.2464 18.3707C74.4453 18.901 74.7365 19.3201 75.12 19.6278C75.5083 19.9309 75.9841 20.0824 76.5476 20.0824ZM84.9776 26.0909C84.6272 26.0909 84.3029 26.0625 84.0046 26.0057C83.7111 25.9536 83.4767 25.892 83.3015 25.821L83.8981 23.8182C84.2721 23.9271 84.6059 23.9792 84.8995 23.9744C85.1931 23.9697 85.4511 23.8774 85.6737 23.6974C85.9009 23.5223 86.0927 23.2287 86.2489 22.8168L86.4691 22.2273L82.5131 11.0909H85.2404L87.7546 19.3295H87.8683L90.3896 11.0909H93.1239L88.756 23.321C88.5524 23.8987 88.2826 24.3935 87.9464 24.8054C87.6102 25.2221 87.1983 25.5393 86.7106 25.7571C86.2276 25.9796 85.65 26.0909 84.9776 26.0909Z" fill="white"/>
</svg>
